<?xml version="1.0" encoding="utf-8"?>
<!-- Generator: Adobe Illustrator 22.0.1, SVG Export Plug-In . SVG Version: 6.00 Build 0)  -->
<svg version="1.1" id="Layer_1" xmlns="http://www.w3.org/2000/svg" xmlns:xlink="http://www.w3.org/1999/xlink" x="0px" y="0px"
	 viewBox="0 0 243.8 695.7" style="enable-background:new 0 0 243.8 695.7;" xml:space="preserve">
<style type="text/css">
	.st0{opacity:0.2;}
	.st1{fill:none;stroke:#28666F;stroke-width:0.9459;stroke-miterlimit:10;}
</style>
<g class="st0">
	<circle class="st1" cx="122.4" cy="95.1" r="49.6"/>
	<polygon class="st1" points="33.7,426.9 33.7,695.5 123,426.9 	"/>
	<polygon class="st1" points="216.6,426.9 216.6,695.5 127.3,426.9 	"/>
	<polygon class="st1" points="230.4,508.6 16.1,508.6 32.2,357 215.2,357 	"/>
	<rect x="40.8" y="357" class="st1" width="166.3" height="83.6"/>
	<path class="st1" d="M106.7,357h32.6h104.2v-54.2c0-114.7-85.6-130.1-108.7-132.2l-16.3,17l-14.6-16.2
		C74.7,175.5,1.3,196.7,1.3,302.8L0.5,357H106.7"/>
	<polygon class="st1" points="77.1,74.8 167.4,74.8 178.5,1 64.2,1 	"/>
	<rect x="89.9" y="242.6" class="st1" width="9.8" height="9.8"/>
	<rect x="89.9" y="269.5" class="st1" width="9.8" height="9.8"/>
	<path class="st1" d="M167.4,243.8h-38.3v36h13.8v27.5h9.8v-27.5h14.7V243.8z M140.6,248.4c2.9,0,5.2,2.3,5.2,5.2
		c0,2.9-2.3,5.2-5.2,5.2c-2.9,0-5.2-2.3-5.2-5.2C135.5,250.8,137.8,248.4,140.6,248.4z M135.5,268.3c0-2.9,2.3-5.2,5.2-5.2
		c2.9,0,5.2,2.3,5.2,5.2c0,2.9-2.3,5.2-5.2,5.2C137.8,273.5,135.5,271.2,135.5,268.3z M157,273.5c-2.9,0-5.2-2.3-5.2-5.2
		c0-2.9,2.3-5.2,5.2-5.2c2.9,0,5.2,2.3,5.2,5.2C162.1,271.2,159.8,273.5,157,273.5z M157,258.8c-2.9,0-5.2-2.3-5.2-5.2
		c0-2.9,2.3-5.2,5.2-5.2c2.9,0,5.2,2.3,5.2,5.2C162.1,256.5,159.8,258.8,157,258.8z"/>
	<path class="st1" d="M68,307.2V181.9C36.6,196.4,1.3,229.2,1.3,302.8L0.5,357H160h-31.7l53.3-49.8H68z"/>
</g>
</svg>
