<?xml version="1.0" encoding="utf-8"?>
<!-- Generator: Adobe Illustrator 22.0.1, SVG Export Plug-In . SVG Version: 6.00 Build 0)  -->
<svg version="1.1" id="Layer_1" xmlns="http://www.w3.org/2000/svg" xmlns:xlink="http://www.w3.org/1999/xlink" x="0px" y="0px"
	 viewBox="0 0 367.2 649" style="enable-background:new 0 0 367.2 649;" xml:space="preserve">
<style type="text/css">
	.st0{opacity:0.2;}
	.st1{fill:none;stroke:#28666F;stroke-width:0.9459;stroke-miterlimit:10;}
</style>
<g class="st0">
	<path class="st1" d="M229.4,126.7L311.5,392h51.3l-65.5-200.9c0,0-7.5-28-29.1-46.4C249.5,128.9,229.4,126.7,229.4,126.7z"/>
	<circle class="st1" cx="204.6" cy="51.1" r="49.1"/>
	<path class="st1" d="M216.3,125.6h-13c-46.3,0-84.1,39.8-84.1,88.5v0.5v76.7v88.5h84.1h13h84.1v-88.5v-76.7v-0.5
		C300.4,165.4,262.6,125.6,216.3,125.6z"/>
	<polygon class="st1" points="119.2,379.7 119.2,645.9 207.7,379.7 	"/>
	<polygon class="st1" points="300.4,379.7 300.4,645.9 212,379.7 	"/>
	<rect x="119.2" y="310.5" class="st1" width="181.2" height="108.7"/>
	<rect x="141.8" y="310.5" class="st1" width="48.3" height="82.8"/>
	<path class="st1" d="M190.1,126.7L107.9,392H56.6l65.5-200.9c0,0,7.5-28,29.1-46.4C169.9,128.9,190.1,126.7,190.1,126.7z"/>
	<polygon class="st1" points="63.2,252.7 51.2,608.4 39.2,252.7 	"/>
	<polygon class="st1" points="101.2,645.9 89.9,621.2 14.4,621.2 1.2,645.9 	"/>
</g>
</svg>
