<?xml version="1.0" encoding="utf-8"?>
<!-- Generator: Adobe Illustrator 22.0.1, SVG Export Plug-In . SVG Version: 6.00 Build 0)  -->
<svg version="1.1" id="Layer_1" xmlns="http://www.w3.org/2000/svg" xmlns:xlink="http://www.w3.org/1999/xlink" x="0px" y="0px"
	 viewBox="0 0 353.8 655.7" style="enable-background:new 0 0 353.8 655.7;" xml:space="preserve">
<style type="text/css">
	.st0{opacity:0.2;}
	.st1{fill:none;stroke:#28666F;stroke-width:0.9459;stroke-miterlimit:10;}
</style>
<g class="st0">
	<circle class="st1" cx="97.8" cy="51.9" r="49.5"/>
	<path class="st1" d="M99.6,127H86.5c-46.6,0-84.8,40.1-84.8,89.2v0.5v77.3v89.2h84.8h13.1h84.8v-89.2v-77.3v-0.5
		C184.3,167.1,146.2,127,99.6,127z"/>
	<path class="st1" d="M9.2,179.7l181.3,102.8l144.4-138.8l-56.5-0.3l-86.1,79.8c0,0-142.4-82.7-147.7-84.2
		C19.5,153.5,9.2,179.7,9.2,179.7z"/>
	<polygon class="st1" points="3.2,383.1 3.2,651.2 92.3,383.1 	"/>
	<polygon class="st1" points="185.8,383.1 185.8,651.2 96.6,383.1 	"/>
	<polygon class="st1" points="193.8,422.9 1.8,422.9 1.8,313.3 184.3,313.3 	"/>
	<path class="st1" d="M184,208.3l70.7-65l23.8,0.1l-86.1,79.8l-8.1-4.7C184.3,218.6,184.2,210.8,184,208.3z"/>
	<polygon class="st1" points="300.2,28 300.2,3.8 284.6,3.8 284.6,28 272.2,28 272.2,143.6 312.6,143.6 312.6,28 	"/>
	<path class="st1" d="M352.7,70.4c0-1.5-0.1-2.9-0.3-4.4h-61.2c-0.2,1.4-0.3,2.9-0.3,4.4c0,16.3,12.7,29.7,28.7,30.9v42.3h4.7v-42.3
		C340.2,100,352.7,86.7,352.7,70.4z"/>
	<path class="st1" d="M312.4,85.3c0-1.2-0.1-2.3-0.3-3.5h-48.7c-0.2,1.1-0.3,2.3-0.3,3.5c0,13,10.1,23.6,22.8,24.6v33.6h3.8v-33.7
		C302.4,108.9,312.4,98.3,312.4,85.3z"/>
	<rect x="124.8" y="313.3" class="st1" width="48.6" height="83.5"/>
</g>
</svg>
