<?xml version="1.0" encoding="utf-8"?>
<!-- Generator: Adobe Illustrator 22.0.1, SVG Export Plug-In . SVG Version: 6.00 Build 0)  -->
<svg version="1.1" id="Layer_1" xmlns="http://www.w3.org/2000/svg" xmlns:xlink="http://www.w3.org/1999/xlink" x="0px" y="0px"
	 viewBox="0 0 413.8 628.3" style="enable-background:new 0 0 413.8 628.3;" xml:space="preserve">
<style type="text/css">
	.st0{opacity:0.2;}
	.st1{fill:none;stroke:#28666F;stroke-width:0.9506;stroke-miterlimit:10;}
</style>
<g class="st0">
	<path class="st1" d="M112.5,121.6H99.8c-45.3,0-82.3,38.6-82.3,85.8v0.5v74.4V368h82.3h12.7h82.3v-85.8v-74.4v-0.5
		C194.9,160.2,157.8,121.6,112.5,121.6z"/>
	<path class="st1" d="M24.8,172.3l176.1,98.9l140.3-133.6l-54.8-0.2l-83.6,76.8c0,0-138.3-79.6-143.5-81
		C34.7,147.1,24.8,172.3,24.8,172.3z"/>
	<polygon class="st1" points="17.5,368 17.5,626 104.1,368 	"/>
	<polygon class="st1" points="194.9,368 194.9,626 108.3,368 	"/>
	<polygon class="st1" points="211,406.3 2.1,406.3 17.5,300.9 194.9,300.9 	"/>
	<path class="st1" d="M194.5,199.8l68.7-62.5l23.1,0.1l-83.6,76.8l-7.8-4.5C194.9,209.7,194.8,202.3,194.5,199.8z"/>
	<polygon class="st1" points="179.8,300.9 137,300.9 89.8,300.9 82.8,381.2 137,381.2 188.7,381.2 	"/>
	<path class="st1" d="M411.3,137.3C411.3,78,362.8,30,302.9,30S194.6,78,194.5,137.3H411.3z"/>
	<path class="st1" d="M110.8,1.7c-26,0-47.1,20.4-48,45.9h0v49.1c0,0,46.5,0.2,48.1,0.2c26.5,0,48.1-21.3,48.1-47.6
		C158.8,23.1,137.3,1.7,110.8,1.7z"/>
</g>
</svg>
