<?xml version="1.0" encoding="utf-8"?>
<!-- Generator: Adobe Illustrator 22.0.1, SVG Export Plug-In . SVG Version: 6.00 Build 0)  -->
<svg version="1.1" id="Layer_1" xmlns="http://www.w3.org/2000/svg" xmlns:xlink="http://www.w3.org/1999/xlink" x="0px" y="0px"
	 viewBox="0 0 517.7 148.1" style="enable-background:new 0 0 517.7 148.1;" xml:space="preserve">
<style type="text/css">
	.st0{fill:#76C5D0;}
	.st1{fill:#27666F;}
	.st2{fill:#D6EAC8;}
	.st3{fill:#4C5324;}
	.st4{fill:#B3519E;}
	.st5{fill:#E5BDD9;}
</style>
<g>
	<polygon class="st0" points="34.3,83.8 17.7,83.8 17.7,1.1 34.3,17.7 	"/>
	<polygon class="st1" points="1.4,67.3 17.7,83.8 17.7,67.3 	"/>
</g>
<g>
	<polygon class="st1" points="67.5,17.7 50.9,34.3 51,67.4 67.4,84 100.7,84 117.3,67.4 117.3,34.2 100.7,17.7 	"/>
	<polygon class="st0" points="67.5,34.2 100.7,34.2 100.7,67.4 67.6,67.4 	"/>
</g>
<g>
	<polygon class="st0" points="300,17.5 283.4,34.1 283.5,67.2 300,83.8 333.2,83.9 349.8,67.3 349.8,34.1 333.2,17.5 	"/>
	<polygon class="st2" points="300,34.1 333.3,34.1 333.2,67.3 300.1,67.2 	"/>
</g>
<g>
	<polygon class="st3" points="150.4,84.1 133.7,67.5 133.7,1.1 150.4,17.6 	"/>
	<polygon class="st4" points="200.2,34.3 150.2,34.3 150.2,17.6 183.5,17.6 	"/>
	<polygon class="st5" points="200.2,67.5 150.4,67.5 150.4,84.1 183.6,84.1 	"/>
	<rect x="183.2" y="34.3" class="st4" width="16.9" height="33.2"/>
</g>
<g>
	<polygon class="st3" points="383,84.1 366.3,84.1 366.3,34.2 383,17.6 	"/>
	<polygon class="st0" points="432.8,34.3 382.8,34.3 382.8,17.6 416.1,17.6 	"/>
	<polygon class="st4" points="432.8,50.9 383,50.9 383,67.5 416.2,67.5 	"/>
	<polygon class="st0" points="432.7,51 415.8,67.5 415.8,34.3 432.7,34.3 	"/>
	<polygon class="st4" points="416.1,67.2 432.7,84.1 415.9,84.1 416,67.2 	"/>
</g>
<g>
	<polygon class="st1" points="465.8,61.5 482.4,44.5 465.6,44.5 465.6,61.5 	"/>
	<polygon class="st3" points="465.7,84.1 449,67.5 449,34.2 465.7,17.6 	"/>
	<polygon class="st3" points="515.5,34.3 465.6,34.3 465.6,17.6 498.8,17.6 	"/>
	<polygon class="st1" points="515.5,67.5 465.7,67.5 465.7,84.1 498.9,84.1 	"/>
</g>
<g>
	<polygon class="st3" points="216.7,67.4 266.4,67.4 282.9,84.1 233.4,84.1 	"/>
	<polygon class="st0" points="216.7,17.7 266.4,17.7 283,1.2 233.3,1.2 	"/>
	
		<rect x="216.7" y="17.5" transform="matrix(-1 -1.224647e-16 1.224647e-16 -1 450.3719 84.98)" class="st1" width="16.9" height="50"/>
</g>
<g>
	<path class="st1" d="M118.4,124.5h-7.7v20.7h-1.9v-20.7h-7.6v-1.6h17.2V124.5z"/>
	<path class="st1" d="M138.8,139h-10.1l-2.3,6.3h-2l8.5-22.3h1.8l8.5,22.3h-2L138.8,139z M129.3,137.4h9l-4.5-12.2L129.3,137.4z"/>
	<path class="st1" d="M154.3,143.7h11v1.6h-12.9v-22.3h1.9V143.7z"/>
	<path class="st1" d="M187.3,134.6h-10.5v9.1h12v1.6H175v-22.3h13.8v1.6h-11.9v8.4h10.5V134.6z"/>
	<path class="st1" d="M215.5,145.3h-1.9l-12.8-19.1v19.1h-1.9v-22.3h1.9l12.9,19.1v-19.1h1.9V145.3z"/>
	<path class="st1" d="M241.9,124.5h-7.7v20.7h-1.9v-20.7h-7.6v-1.6h17.2V124.5z"/>
	<path class="st1" d="M277.2,139.8c0-1.2-0.4-2.2-1.3-2.9c-0.9-0.7-2.5-1.4-4.8-2.1c-2.3-0.6-4-1.4-5.1-2.1
		c-1.5-1.1-2.3-2.5-2.3-4.3c0-1.7,0.7-3.1,2.1-4.2c1.4-1.1,3.2-1.6,5.4-1.6c1.5,0,2.8,0.3,4,0.9c1.2,0.6,2.1,1.4,2.7,2.4
		c0.6,1,1,2.2,1,3.4H277c0-1.5-0.5-2.8-1.6-3.7s-2.4-1.4-4.2-1.4c-1.7,0-3.1,0.4-4.1,1.1c-1,0.8-1.5,1.8-1.5,3
		c0,1.1,0.5,2.1,1.4,2.8c0.9,0.7,2.4,1.4,4.4,1.9c2,0.5,3.5,1.1,4.6,1.7c1,0.6,1.8,1.3,2.3,2.1c0.5,0.8,0.8,1.8,0.8,2.9
		c0,1.8-0.7,3.2-2.1,4.2c-1.4,1.1-3.3,1.6-5.6,1.6c-1.6,0-3-0.3-4.3-0.8s-2.3-1.4-3-2.4c-0.7-1-1-2.2-1-3.5h1.9
		c0,1.6,0.6,2.8,1.8,3.7c1.2,0.9,2.7,1.4,4.7,1.4c1.7,0,3.1-0.4,4.2-1.2S277.2,141,277.2,139.8z"/>
	<path class="st1" d="M301.5,134.6H291v9.1h12v1.6h-13.9v-22.3H303v1.6H291v8.4h10.5V134.6z"/>
	<path class="st1" d="M325.1,139H315l-2.3,6.3h-2l8.5-22.3h1.8l8.5,22.3h-2L325.1,139z M315.5,137.4h9l-4.5-12.2L315.5,137.4z"/>
	<path class="st1" d="M347,135.9h-6.5v9.3h-1.9v-22.3h7.3c2.4,0,4.2,0.6,5.6,1.7c1.3,1.2,2,2.8,2,4.8c0,1.4-0.4,2.7-1.3,3.8
		c-0.8,1.1-2,1.8-3.4,2.3l5.6,9.5v0.2h-2L347,135.9z M340.5,134.4h5.8c1.6,0,2.9-0.5,3.8-1.4c1-0.9,1.4-2.1,1.4-3.5
		c0-1.6-0.5-2.8-1.5-3.7c-1-0.9-2.4-1.3-4.2-1.3h-5.3V134.4z"/>
	<path class="st1" d="M380.4,138.3c-0.3,2.4-1.1,4.2-2.5,5.4c-1.4,1.2-3.3,1.9-5.7,1.9c-1.7,0-3.1-0.4-4.4-1.2c-1.3-0.8-2.3-2-3-3.5
		c-0.7-1.5-1-3.3-1.1-5.2v-2.9c0-2,0.3-3.7,1-5.3c0.7-1.5,1.7-2.7,3-3.6c1.3-0.8,2.8-1.3,4.5-1.3c2.4,0,4.3,0.6,5.7,1.9
		s2.2,3.1,2.4,5.4h-1.9c-0.5-3.8-2.5-5.7-6.2-5.7c-2,0-3.6,0.8-4.8,2.3s-1.8,3.6-1.8,6.3v2.7c0,2.6,0.6,4.6,1.8,6.2
		c1.2,1.5,2.8,2.3,4.7,2.3c2,0,3.5-0.5,4.5-1.4c1-0.9,1.6-2.4,1.9-4.3H380.4z"/>
	<path class="st1" d="M407.6,145.3h-1.9v-10.7h-12.8v10.7H391v-22.3h1.9v10h12.8v-10h1.9V145.3z"/>
</g>
</svg>
